G04*
G04 #@! TF.GenerationSoftware,Altium Limited,Altium Designer,26.3.0 (6)*
G04*
G04 Layer_Color=8388736*
%FSLAX44Y44*%
%MOMM*%
G71*
G04*
G04 #@! TF.SameCoordinates,E3C34B92-63F3-42E7-B0AE-66A74E34FFFB*
G04*
G04*
G04 #@! TF.FilePolarity,Negative*
G04*
G01*
G75*
%ADD16R,1.6000X3.2000*%
%ADD17R,3.2000X1.6000*%
%ADD18R,1.1546X1.3621*%
%ADD19R,0.6000X1.2500*%
%ADD21R,1.0546X1.3562*%
%ADD22R,2.1000X1.4000*%
%ADD23R,1.1938X1.1938*%
%ADD26R,1.3562X1.0546*%
%ADD27R,0.8721X1.0043*%
%ADD32R,1.7200X3.2000*%
%ADD36R,1.6800X1.7000*%
%ADD37R,0.9000X1.2000*%
%ADD38R,1.2000X0.9000*%
%ADD39R,1.3098X0.9061*%
G04:AMPARAMS|DCode=40|XSize=1.0043mm|YSize=3.1821mm|CornerRadius=0.4369mm|HoleSize=0mm|Usage=FLASHONLY|Rotation=90.000|XOffset=0mm|YOffset=0mm|HoleType=Round|Shape=RoundedRectangle|*
%AMROUNDEDRECTD40*
21,1,1.0043,2.3084,0,0,90.0*
21,1,0.1306,3.1821,0,0,90.0*
1,1,0.8737,1.1542,0.0653*
1,1,0.8737,1.1542,-0.0653*
1,1,0.8737,-1.1542,-0.0653*
1,1,0.8737,-1.1542,0.0653*
%
%ADD40ROUNDEDRECTD40*%
G04:AMPARAMS|DCode=41|XSize=1.0043mm|YSize=0.8721mm|CornerRadius=0.4361mm|HoleSize=0mm|Usage=FLASHONLY|Rotation=90.000|XOffset=0mm|YOffset=0mm|HoleType=Round|Shape=RoundedRectangle|*
%AMROUNDEDRECTD41*
21,1,1.0043,0.0000,0,0,90.0*
21,1,0.1322,0.8721,0,0,90.0*
1,1,0.8721,0.0000,0.0661*
1,1,0.8721,0.0000,-0.0661*
1,1,0.8721,0.0000,-0.0661*
1,1,0.8721,0.0000,0.0661*
%
%ADD41ROUNDEDRECTD41*%
%ADD42R,1.9032X3.0032*%
G04:AMPARAMS|DCode=43|XSize=6.6532mm|YSize=8.7032mm|CornerRadius=0.1661mm|HoleSize=0mm|Usage=FLASHONLY|Rotation=0.000|XOffset=0mm|YOffset=0mm|HoleType=Round|Shape=RoundedRectangle|*
%AMROUNDEDRECTD43*
21,1,6.6532,8.3710,0,0,0.0*
21,1,6.3210,8.7032,0,0,0.0*
1,1,0.3322,3.1605,-4.1855*
1,1,0.3322,-3.1605,-4.1855*
1,1,0.3322,-3.1605,4.1855*
1,1,0.3322,3.1605,4.1855*
%
%ADD43ROUNDEDRECTD43*%
G04:AMPARAMS|DCode=44|XSize=1.2532mm|YSize=4.6532mm|CornerRadius=0.1541mm|HoleSize=0mm|Usage=FLASHONLY|Rotation=0.000|XOffset=0mm|YOffset=0mm|HoleType=Round|Shape=RoundedRectangle|*
%AMROUNDEDRECTD44*
21,1,1.2532,4.3450,0,0,0.0*
21,1,0.9450,4.6532,0,0,0.0*
1,1,0.3082,0.4725,-2.1725*
1,1,0.3082,-0.4725,-2.1725*
1,1,0.3082,-0.4725,2.1725*
1,1,0.3082,0.4725,2.1725*
%
%ADD44ROUNDEDRECTD44*%
%ADD45R,1.5032X1.6532*%
%ADD46R,1.1032X2.2032*%
%ADD47R,2.2032X1.1032*%
%ADD48R,1.5332X1.5332*%
%ADD49O,1.4532X0.7532*%
%ADD50R,1.5532X1.1032*%
%ADD51R,3.2032X3.1032*%
%ADD52C,1.7032*%
%ADD53C,0.5032*%
%ADD54C,4.2032*%
%ADD55R,1.7032X1.7032*%
%ADD56R,1.7032X1.7032*%
D16*
X556006Y546336D02*
D03*
Y496336D02*
D03*
X699262Y356616D02*
D03*
Y306616D02*
D03*
D17*
X1014114Y313944D02*
D03*
X1064114D02*
D03*
D18*
X501264Y552450D02*
D03*
X483748D02*
D03*
D19*
X500236Y515112D02*
D03*
X482236D02*
D03*
D21*
X745452Y71628D02*
D03*
X170124Y206138D02*
D03*
X110452Y179832D02*
D03*
X662648Y465074D02*
D03*
X759968Y71628D02*
D03*
X155609Y206138D02*
D03*
X124968Y179832D02*
D03*
X677164Y465074D02*
D03*
D22*
X308178Y52578D02*
D03*
X408178D02*
D03*
X143586Y53086D02*
D03*
X243586D02*
D03*
X308178Y97578D02*
D03*
X408178D02*
D03*
X143586Y98086D02*
D03*
X243586D02*
D03*
D23*
X110490Y484632D02*
D03*
X131064D02*
D03*
D26*
X611576Y538360D02*
D03*
X836168Y24492D02*
D03*
X611576Y552876D02*
D03*
X836168Y39008D02*
D03*
D27*
X642072Y488950D02*
D03*
D32*
X1067816Y490728D02*
D03*
X1003716D02*
D03*
D36*
X395224Y556380D02*
D03*
Y520580D02*
D03*
D37*
X1008126Y87122D02*
D03*
X987126D02*
D03*
D38*
X131318Y459150D02*
D03*
Y438150D02*
D03*
D39*
X159512Y180735D02*
D03*
Y165213D02*
D03*
D40*
X664972Y554850D02*
D03*
D41*
Y488950D02*
D03*
X687872D02*
D03*
D42*
X983488Y157486D02*
D03*
Y189986D02*
D03*
D43*
X860806Y209976D02*
D03*
D44*
X826806Y315476D02*
D03*
X860806D02*
D03*
X843806D02*
D03*
X877806D02*
D03*
X894806D02*
D03*
D45*
X110482Y208388D02*
D03*
X126482D02*
D03*
D46*
X130771Y239136D02*
D03*
Y409136D02*
D03*
X143471D02*
D03*
X156171D02*
D03*
X168871D02*
D03*
X181571D02*
D03*
X194271D02*
D03*
X206971D02*
D03*
X219671D02*
D03*
X232371D02*
D03*
X245071D02*
D03*
X257771D02*
D03*
X270471D02*
D03*
X283171D02*
D03*
X295871D02*
D03*
Y239136D02*
D03*
X283171D02*
D03*
X270471D02*
D03*
X257771D02*
D03*
X245071D02*
D03*
X232371D02*
D03*
X219671D02*
D03*
X206971D02*
D03*
X194271D02*
D03*
X181571D02*
D03*
X168871D02*
D03*
X156171D02*
D03*
X143471D02*
D03*
D47*
X305871Y266986D02*
D03*
Y381286D02*
D03*
Y368586D02*
D03*
Y355886D02*
D03*
Y343186D02*
D03*
Y330486D02*
D03*
Y317786D02*
D03*
Y305086D02*
D03*
Y292386D02*
D03*
Y279686D02*
D03*
D48*
X187421Y295786D02*
D03*
Y314136D02*
D03*
Y332486D02*
D03*
X205771Y295786D02*
D03*
Y314136D02*
D03*
Y332486D02*
D03*
X224121Y295786D02*
D03*
Y314136D02*
D03*
Y332486D02*
D03*
D49*
X784518Y84328D02*
D03*
X837018Y97028D02*
D03*
Y71628D02*
D03*
Y84328D02*
D03*
X784518Y71628D02*
D03*
Y97028D02*
D03*
Y58928D02*
D03*
X837018D02*
D03*
D50*
X894952Y87176D02*
D03*
Y62176D02*
D03*
X940452D02*
D03*
X940452Y87176D02*
D03*
D51*
X782814Y490728D02*
D03*
X939814D02*
D03*
D52*
X77724Y556260D02*
D03*
X302514Y555498D02*
D03*
X1117600Y170180D02*
D03*
Y119380D02*
D03*
Y144780D02*
D03*
X1052830Y225298D02*
D03*
X1052576Y97028D02*
D03*
X226314Y555498D02*
D03*
X128524Y556260D02*
D03*
X251714Y555498D02*
D03*
X277114D02*
D03*
X103124Y556260D02*
D03*
X327914Y555498D02*
D03*
D53*
X187421Y304961D02*
D03*
Y323311D02*
D03*
X196596Y295786D02*
D03*
Y314136D02*
D03*
Y332486D02*
D03*
X205771Y304961D02*
D03*
Y323311D02*
D03*
X214946Y295786D02*
D03*
Y314136D02*
D03*
Y332486D02*
D03*
X224121Y304961D02*
D03*
Y323311D02*
D03*
D54*
X64770Y484632D02*
D03*
X1115568Y567436D02*
D03*
X32512Y31242D02*
D03*
X1119886Y29210D02*
D03*
D55*
X1117600Y195580D02*
D03*
X1052830Y199898D02*
D03*
X1052576Y122428D02*
D03*
D56*
X200914Y555498D02*
D03*
X52324Y556260D02*
D03*
M02*
