G04*
G04 #@! TF.GenerationSoftware,Altium Limited,Altium Designer,26.3.0 (6)*
G04*
G04 Layer_Physical_Order=2*
G04 Layer_Color=16711680*
%FSLAX44Y44*%
%MOMM*%
G71*
G04*
G04 #@! TF.SameCoordinates,E3C34B92-63F3-42E7-B0AE-66A74E34FFFB*
G04*
G04*
G04 #@! TF.FilePolarity,Positive*
G04*
G01*
G75*
%ADD57C,0.4000*%
%ADD59C,0.3000*%
%ADD60C,1.5000*%
%ADD61C,0.3000*%
%ADD62C,4.0000*%
%ADD63R,1.5000X1.5000*%
%ADD64R,1.5000X1.5000*%
%ADD65C,0.6000*%
%ADD66C,1.2700*%
G36*
X723900Y479806D02*
X621030D01*
Y597410D01*
X723900D01*
Y479806D01*
D02*
G37*
G36*
X1140249Y597022D02*
X1142089Y596260D01*
X1143745Y595153D01*
X1145153Y593745D01*
X1146260Y592089D01*
X1147022Y590249D01*
X1147410Y588296D01*
Y587300D01*
Y12700D01*
Y11704D01*
X1147022Y9751D01*
X1146260Y7911D01*
X1145153Y6255D01*
X1143745Y4847D01*
X1142089Y3740D01*
X1140249Y2978D01*
X1138296Y2590D01*
X1137300D01*
X25000Y2589D01*
X11704D01*
X9751Y2978D01*
X7911Y3740D01*
X6255Y4847D01*
X4847Y6255D01*
X3740Y7911D01*
X2978Y9751D01*
X2590Y11704D01*
Y12700D01*
Y587300D01*
Y588296D01*
X2978Y590249D01*
X3740Y592089D01*
X4847Y593745D01*
X6255Y595153D01*
X7911Y596260D01*
X9751Y597022D01*
X11704Y597410D01*
X618440D01*
Y479806D01*
X618637Y478815D01*
X619199Y477975D01*
X620039Y477413D01*
X621030Y477216D01*
X723900D01*
X724891Y477413D01*
X725731Y477975D01*
X726293Y478815D01*
X726490Y479806D01*
Y597410D01*
X1138296D01*
X1140249Y597022D01*
D02*
G37*
%LPC*%
G36*
X663702Y560320D02*
X661834Y559547D01*
X660343Y558056D01*
X658966Y559433D01*
X657098Y560206D01*
Y554736D01*
Y549266D01*
X658966Y550039D01*
X660457Y551530D01*
X661834Y550153D01*
X663702Y549380D01*
Y554850D01*
Y560320D01*
D02*
G37*
G36*
X676402Y560206D02*
Y556006D01*
X680602D01*
X679829Y557874D01*
X678270Y559433D01*
X676402Y560206D01*
D02*
G37*
G36*
X654558D02*
X652690Y559433D01*
X651131Y557874D01*
X650358Y556006D01*
X654558D01*
Y560206D01*
D02*
G37*
G36*
X680602Y553466D02*
X676402D01*
Y549266D01*
X678270Y550039D01*
X679829Y551598D01*
X680602Y553466D01*
D02*
G37*
G36*
X666242Y560320D02*
Y554850D01*
Y549380D01*
X668110Y550153D01*
X668336Y550379D01*
X670115Y551412D01*
X671654Y550379D01*
X671994Y550039D01*
X673862Y549266D01*
Y554736D01*
Y560206D01*
X671994Y559433D01*
X671768Y559207D01*
X669989Y558174D01*
X668450Y559207D01*
X668110Y559547D01*
X666242Y560320D01*
D02*
G37*
G36*
X654558Y553466D02*
X650358D01*
X651131Y551598D01*
X652690Y550039D01*
X654558Y549266D01*
Y553466D01*
D02*
G37*
G36*
X1058110Y565251D02*
Y561050D01*
X1062311D01*
X1061537Y562918D01*
X1059978Y564477D01*
X1058110Y565251D01*
D02*
G37*
G36*
X1055570D02*
X1053702Y564477D01*
X1052144Y562918D01*
X1051370Y561050D01*
X1055570D01*
Y565251D01*
D02*
G37*
G36*
X988110D02*
Y561050D01*
X992311D01*
X991537Y562918D01*
X989978Y564477D01*
X988110Y565251D01*
D02*
G37*
G36*
X985570D02*
X983702Y564477D01*
X982144Y562918D01*
X981370Y561050D01*
X985570D01*
Y565251D01*
D02*
G37*
G36*
X918110D02*
Y561050D01*
X922311D01*
X921537Y562918D01*
X919978Y564477D01*
X918110Y565251D01*
D02*
G37*
G36*
X915570D02*
X913702Y564477D01*
X912144Y562918D01*
X911370Y561050D01*
X915570D01*
Y565251D01*
D02*
G37*
G36*
X848110D02*
Y561050D01*
X852311D01*
X851537Y562918D01*
X849978Y564477D01*
X848110Y565251D01*
D02*
G37*
G36*
X845570D02*
X843702Y564477D01*
X842144Y562918D01*
X841370Y561050D01*
X845570D01*
Y565251D01*
D02*
G37*
G36*
X778110D02*
Y561050D01*
X782311D01*
X781537Y562918D01*
X779978Y564477D01*
X778110Y565251D01*
D02*
G37*
G36*
X775570D02*
X773702Y564477D01*
X772144Y562918D01*
X771370Y561050D01*
X775570D01*
Y565251D01*
D02*
G37*
G36*
X428110D02*
Y561050D01*
X432310D01*
X431537Y562918D01*
X429978Y564477D01*
X428110Y565251D01*
D02*
G37*
G36*
X425570D02*
X423702Y564477D01*
X422144Y562918D01*
X421370Y561050D01*
X425570D01*
Y565251D01*
D02*
G37*
G36*
X79046Y566300D02*
X78994D01*
Y557530D01*
X87764D01*
Y557582D01*
X87080Y560135D01*
X85758Y562425D01*
X83889Y564294D01*
X81599Y565616D01*
X79046Y566300D01*
D02*
G37*
G36*
X76454D02*
X76402D01*
X73849Y565616D01*
X71559Y564294D01*
X69690Y562425D01*
X68368Y560135D01*
X67684Y557582D01*
Y557530D01*
X76454D01*
Y566300D01*
D02*
G37*
G36*
X303836Y565538D02*
X303784D01*
Y556768D01*
X312554D01*
Y556820D01*
X311870Y559373D01*
X310548Y561663D01*
X308679Y563532D01*
X306389Y564854D01*
X303836Y565538D01*
D02*
G37*
G36*
X301244D02*
X301192D01*
X298639Y564854D01*
X296349Y563532D01*
X294480Y561663D01*
X293158Y559373D01*
X292474Y556820D01*
Y556768D01*
X301244D01*
Y565538D01*
D02*
G37*
G36*
X1062311Y558510D02*
X1058110D01*
Y554310D01*
X1059978Y555084D01*
X1061537Y556642D01*
X1062311Y558510D01*
D02*
G37*
G36*
X1055570D02*
X1051370D01*
X1052144Y556642D01*
X1053702Y555084D01*
X1055570Y554310D01*
Y558510D01*
D02*
G37*
G36*
X992311D02*
X988110D01*
Y554310D01*
X989978Y555084D01*
X991537Y556642D01*
X992311Y558510D01*
D02*
G37*
G36*
X985570D02*
X981370D01*
X982144Y556642D01*
X983702Y555084D01*
X985570Y554310D01*
Y558510D01*
D02*
G37*
G36*
X922311D02*
X918110D01*
Y554310D01*
X919978Y555084D01*
X921537Y556642D01*
X922311Y558510D01*
D02*
G37*
G36*
X915570D02*
X911370D01*
X912144Y556642D01*
X913702Y555084D01*
X915570Y554310D01*
Y558510D01*
D02*
G37*
G36*
X852311D02*
X848110D01*
Y554310D01*
X849978Y555084D01*
X851537Y556642D01*
X852311Y558510D01*
D02*
G37*
G36*
X845570D02*
X841370D01*
X842144Y556642D01*
X843702Y555084D01*
X845570Y554310D01*
Y558510D01*
D02*
G37*
G36*
X782311D02*
X778110D01*
Y554310D01*
X779978Y555084D01*
X781537Y556642D01*
X782311Y558510D01*
D02*
G37*
G36*
X775570D02*
X771370D01*
X772144Y556642D01*
X773702Y555084D01*
X775570Y554310D01*
Y558510D01*
D02*
G37*
G36*
X432310D02*
X428110D01*
Y554310D01*
X429978Y555084D01*
X431537Y556642D01*
X432310Y558510D01*
D02*
G37*
G36*
X425570D02*
X421370D01*
X422144Y556642D01*
X423702Y555084D01*
X425570Y554310D01*
Y558510D01*
D02*
G37*
G36*
X129846Y566300D02*
X127202D01*
X124649Y565616D01*
X122359Y564294D01*
X120490Y562425D01*
X119168Y560135D01*
X118484Y557582D01*
Y554938D01*
X119168Y552385D01*
X120490Y550095D01*
X122359Y548226D01*
X124649Y546904D01*
X127202Y546220D01*
X129846D01*
X132399Y546904D01*
X134689Y548226D01*
X136558Y550095D01*
X137880Y552385D01*
X138564Y554938D01*
Y557582D01*
X137880Y560135D01*
X136558Y562425D01*
X134689Y564294D01*
X132399Y565616D01*
X129846Y566300D01*
D02*
G37*
G36*
X104446D02*
X101802D01*
X99249Y565616D01*
X96959Y564294D01*
X95090Y562425D01*
X93768Y560135D01*
X93084Y557582D01*
Y554938D01*
X93768Y552385D01*
X95090Y550095D01*
X96959Y548226D01*
X99249Y546904D01*
X101802Y546220D01*
X104446D01*
X106999Y546904D01*
X109289Y548226D01*
X111158Y550095D01*
X112480Y552385D01*
X113164Y554938D01*
Y557582D01*
X112480Y560135D01*
X111158Y562425D01*
X109289Y564294D01*
X106999Y565616D01*
X104446Y566300D01*
D02*
G37*
G36*
X87764Y554990D02*
X78994D01*
Y546220D01*
X79046D01*
X81599Y546904D01*
X83889Y548226D01*
X85758Y550095D01*
X87080Y552385D01*
X87764Y554938D01*
Y554990D01*
D02*
G37*
G36*
X76454D02*
X67684D01*
Y554938D01*
X68368Y552385D01*
X69690Y550095D01*
X71559Y548226D01*
X73849Y546904D01*
X76402Y546220D01*
X76454D01*
Y554990D01*
D02*
G37*
G36*
X62364Y566300D02*
X42284D01*
Y546220D01*
X62364D01*
Y566300D01*
D02*
G37*
G36*
X329236Y565538D02*
X326592D01*
X324039Y564854D01*
X321749Y563532D01*
X319880Y561663D01*
X318558Y559373D01*
X317874Y556820D01*
Y554176D01*
X318558Y551623D01*
X319880Y549333D01*
X321749Y547464D01*
X324039Y546142D01*
X326592Y545458D01*
X329236D01*
X331789Y546142D01*
X334079Y547464D01*
X335948Y549333D01*
X337270Y551623D01*
X337954Y554176D01*
Y556820D01*
X337270Y559373D01*
X335948Y561663D01*
X334079Y563532D01*
X331789Y564854D01*
X329236Y565538D01*
D02*
G37*
G36*
X312554Y554228D02*
X303784D01*
Y545458D01*
X303836D01*
X306389Y546142D01*
X308679Y547464D01*
X310548Y549333D01*
X311870Y551623D01*
X312554Y554176D01*
Y554228D01*
D02*
G37*
G36*
X301244D02*
X292474D01*
Y554176D01*
X293158Y551623D01*
X294480Y549333D01*
X296349Y547464D01*
X298639Y546142D01*
X301192Y545458D01*
X301244D01*
Y554228D01*
D02*
G37*
G36*
X278436Y565538D02*
X275792D01*
X273239Y564854D01*
X270949Y563532D01*
X269080Y561663D01*
X267758Y559373D01*
X267074Y556820D01*
Y554176D01*
X267758Y551623D01*
X269080Y549333D01*
X270949Y547464D01*
X273239Y546142D01*
X275792Y545458D01*
X278436D01*
X280989Y546142D01*
X283279Y547464D01*
X285148Y549333D01*
X286470Y551623D01*
X287154Y554176D01*
Y556820D01*
X286470Y559373D01*
X285148Y561663D01*
X283279Y563532D01*
X280989Y564854D01*
X278436Y565538D01*
D02*
G37*
G36*
X253036D02*
X250392D01*
X247839Y564854D01*
X245549Y563532D01*
X243680Y561663D01*
X242358Y559373D01*
X241674Y556820D01*
Y554176D01*
X242358Y551623D01*
X243680Y549333D01*
X245549Y547464D01*
X247839Y546142D01*
X250392Y545458D01*
X253036D01*
X255589Y546142D01*
X257879Y547464D01*
X259748Y549333D01*
X261070Y551623D01*
X261754Y554176D01*
Y556820D01*
X261070Y559373D01*
X259748Y561663D01*
X257879Y563532D01*
X255589Y564854D01*
X253036Y565538D01*
D02*
G37*
G36*
X227636D02*
X224992D01*
X222439Y564854D01*
X220149Y563532D01*
X218280Y561663D01*
X216958Y559373D01*
X216274Y556820D01*
Y554176D01*
X216958Y551623D01*
X218280Y549333D01*
X220149Y547464D01*
X222439Y546142D01*
X224992Y545458D01*
X227636D01*
X230189Y546142D01*
X232479Y547464D01*
X234348Y549333D01*
X235670Y551623D01*
X236354Y554176D01*
Y556820D01*
X235670Y559373D01*
X234348Y561663D01*
X232479Y563532D01*
X230189Y564854D01*
X227636Y565538D01*
D02*
G37*
G36*
X210954D02*
X190874D01*
Y545458D01*
X210954D01*
Y565538D01*
D02*
G37*
G36*
X1117788Y589976D02*
X1113348D01*
X1108993Y589110D01*
X1104891Y587411D01*
X1101200Y584944D01*
X1098060Y581804D01*
X1095593Y578113D01*
X1093894Y574011D01*
X1093028Y569656D01*
Y565216D01*
X1093894Y560861D01*
X1095593Y556759D01*
X1098060Y553068D01*
X1101200Y549928D01*
X1104891Y547461D01*
X1108993Y545762D01*
X1113348Y544896D01*
X1117788D01*
X1122143Y545762D01*
X1126245Y547461D01*
X1129936Y549928D01*
X1133076Y553068D01*
X1135543Y556759D01*
X1137242Y560861D01*
X1138108Y565216D01*
Y569656D01*
X1137242Y574011D01*
X1135543Y578113D01*
X1133076Y581804D01*
X1129936Y584944D01*
X1126245Y587411D01*
X1122143Y589110D01*
X1117788Y589976D01*
D02*
G37*
G36*
X150014Y542544D02*
X147674D01*
X145413Y541938D01*
X143385Y540768D01*
X141730Y539113D01*
X140560Y537085D01*
X139954Y534824D01*
Y532484D01*
X140560Y530223D01*
X141730Y528195D01*
X143385Y526540D01*
X145413Y525370D01*
X147674Y524764D01*
X150014D01*
X152275Y525370D01*
X154303Y526540D01*
X155958Y528195D01*
X156437Y529025D01*
X166231D01*
X192272Y502984D01*
X192024Y502058D01*
Y499718D01*
X192630Y497457D01*
X193800Y495429D01*
X195455Y493774D01*
X197483Y492604D01*
X199744Y491998D01*
X202084D01*
X204345Y492604D01*
X206373Y493774D01*
X208028Y495429D01*
X209198Y497457D01*
X209804Y499718D01*
Y502058D01*
X209198Y504319D01*
X208028Y506347D01*
X206373Y508002D01*
X204345Y509172D01*
X202084Y509778D01*
X199744D01*
X198818Y509530D01*
X171421Y536927D01*
X169919Y537931D01*
X168148Y538283D01*
X168148Y538283D01*
X156437D01*
X155958Y539113D01*
X154303Y540768D01*
X152275Y541938D01*
X150014Y542544D01*
D02*
G37*
G36*
X883110Y495251D02*
Y491050D01*
X887311D01*
X886537Y492918D01*
X884978Y494477D01*
X883110Y495251D01*
D02*
G37*
G36*
X880570D02*
X878702Y494477D01*
X877144Y492918D01*
X876370Y491050D01*
X880570D01*
Y495251D01*
D02*
G37*
G36*
X603110D02*
Y491050D01*
X607311D01*
X606537Y492918D01*
X604978Y494477D01*
X603110Y495251D01*
D02*
G37*
G36*
X600570D02*
X598702Y494477D01*
X597144Y492918D01*
X596370Y491050D01*
X600570D01*
Y495251D01*
D02*
G37*
G36*
X463110D02*
Y491050D01*
X467310D01*
X466537Y492918D01*
X464978Y494477D01*
X463110Y495251D01*
D02*
G37*
G36*
X460570D02*
X458702Y494477D01*
X457144Y492918D01*
X456370Y491050D01*
X460570D01*
Y495251D01*
D02*
G37*
G36*
X887311Y488510D02*
X883110D01*
Y484310D01*
X884978Y485084D01*
X886537Y486642D01*
X887311Y488510D01*
D02*
G37*
G36*
X880570D02*
X876370D01*
X877144Y486642D01*
X878702Y485084D01*
X880570Y484310D01*
Y488510D01*
D02*
G37*
G36*
X607311D02*
X603110D01*
Y484310D01*
X604978Y485084D01*
X606537Y486642D01*
X607311Y488510D01*
D02*
G37*
G36*
X600570D02*
X596370D01*
X597144Y486642D01*
X598702Y485084D01*
X600570Y484310D01*
Y488510D01*
D02*
G37*
G36*
X467310D02*
X463110D01*
Y484310D01*
X464978Y485084D01*
X466537Y486642D01*
X467310Y488510D01*
D02*
G37*
G36*
X460570D02*
X456370D01*
X457144Y486642D01*
X458702Y485084D01*
X460570Y484310D01*
Y488510D01*
D02*
G37*
G36*
X384710Y487426D02*
X382370D01*
X380109Y486820D01*
X378081Y485650D01*
X376426Y483995D01*
X375360Y482147D01*
X266674D01*
X266194Y482979D01*
X264539Y484634D01*
X262511Y485804D01*
X260250Y486410D01*
X257910D01*
X255649Y485804D01*
X253621Y484634D01*
X251966Y482979D01*
X250796Y480951D01*
X250190Y478690D01*
Y476350D01*
X250796Y474089D01*
X251966Y472061D01*
X253621Y470406D01*
X255649Y469236D01*
X257910Y468630D01*
X260250D01*
X262511Y469236D01*
X264539Y470406D01*
X266194Y472061D01*
X267260Y473909D01*
X375946D01*
X376426Y473077D01*
X378081Y471422D01*
X380109Y470252D01*
X382370Y469646D01*
X384710D01*
X386971Y470252D01*
X388999Y471422D01*
X390654Y473077D01*
X391824Y475105D01*
X392430Y477366D01*
Y479706D01*
X391824Y481967D01*
X390654Y483995D01*
X388999Y485650D01*
X386971Y486820D01*
X384710Y487426D01*
D02*
G37*
G36*
X66990Y507172D02*
X62550D01*
X58195Y506306D01*
X54093Y504607D01*
X50402Y502140D01*
X47262Y499000D01*
X44795Y495309D01*
X43096Y491207D01*
X42230Y486852D01*
Y482412D01*
X43096Y478057D01*
X44795Y473955D01*
X47262Y470264D01*
X50402Y467124D01*
X54093Y464657D01*
X58195Y462958D01*
X62550Y462092D01*
X66990D01*
X71345Y462958D01*
X75447Y464657D01*
X79138Y467124D01*
X82278Y470264D01*
X84745Y473955D01*
X86444Y478057D01*
X87310Y482412D01*
Y486852D01*
X86444Y491207D01*
X84745Y495309D01*
X82278Y499000D01*
X79138Y502140D01*
X75447Y504607D01*
X71345Y506306D01*
X66990Y507172D01*
D02*
G37*
G36*
X290476Y468376D02*
X288136D01*
X285875Y467770D01*
X283847Y466600D01*
X282192Y464945D01*
X281022Y462917D01*
X280416Y460656D01*
Y458316D01*
X281022Y456055D01*
X282192Y454027D01*
X283847Y452372D01*
X285875Y451202D01*
X288136Y450596D01*
X290476D01*
X292737Y451202D01*
X294765Y452372D01*
X296420Y454027D01*
X297193Y455367D01*
X363038D01*
X383940Y434464D01*
X383540Y432970D01*
Y430630D01*
X384146Y428369D01*
X385316Y426341D01*
X386971Y424686D01*
X388999Y423516D01*
X391260Y422910D01*
X393600D01*
X395861Y423516D01*
X397889Y424686D01*
X399544Y426341D01*
X400714Y428369D01*
X401320Y430630D01*
Y432970D01*
X400714Y435231D01*
X399544Y437259D01*
X397889Y438914D01*
X395861Y440084D01*
X393600Y440690D01*
X391260D01*
X389766Y440290D01*
X367657Y462399D01*
X366320Y463292D01*
X364744Y463605D01*
X297193D01*
X296420Y464945D01*
X294765Y466600D01*
X292737Y467770D01*
X290476Y468376D01*
D02*
G37*
G36*
X1128110Y425251D02*
Y421050D01*
X1132311D01*
X1131537Y422918D01*
X1129978Y424477D01*
X1128110Y425251D01*
D02*
G37*
G36*
X1125570D02*
X1123702Y424477D01*
X1122144Y422918D01*
X1121370Y421050D01*
X1125570D01*
Y425251D01*
D02*
G37*
G36*
X1058110D02*
Y421050D01*
X1062311D01*
X1061537Y422918D01*
X1059978Y424477D01*
X1058110Y425251D01*
D02*
G37*
G36*
X1055570D02*
X1053702Y424477D01*
X1052144Y422918D01*
X1051370Y421050D01*
X1055570D01*
Y425251D01*
D02*
G37*
G36*
X918110D02*
Y421050D01*
X922311D01*
X921537Y422918D01*
X919978Y424477D01*
X918110Y425251D01*
D02*
G37*
G36*
X915570D02*
X913702Y424477D01*
X912144Y422918D01*
X911370Y421050D01*
X915570D01*
Y425251D01*
D02*
G37*
G36*
X848110D02*
Y421050D01*
X852311D01*
X851537Y422918D01*
X849978Y424477D01*
X848110Y425251D01*
D02*
G37*
G36*
X845570D02*
X843702Y424477D01*
X842144Y422918D01*
X841370Y421050D01*
X845570D01*
Y425251D01*
D02*
G37*
G36*
X778110D02*
Y421050D01*
X782311D01*
X781537Y422918D01*
X779978Y424477D01*
X778110Y425251D01*
D02*
G37*
G36*
X775570D02*
X773702Y424477D01*
X772144Y422918D01*
X771370Y421050D01*
X775570D01*
Y425251D01*
D02*
G37*
G36*
X1132311Y418510D02*
X1128110D01*
Y414310D01*
X1129978Y415084D01*
X1131537Y416642D01*
X1132311Y418510D01*
D02*
G37*
G36*
X1125570D02*
X1121370D01*
X1122144Y416642D01*
X1123702Y415084D01*
X1125570Y414310D01*
Y418510D01*
D02*
G37*
G36*
X1062311D02*
X1058110D01*
Y414310D01*
X1059978Y415084D01*
X1061537Y416642D01*
X1062311Y418510D01*
D02*
G37*
G36*
X1055570D02*
X1051370D01*
X1052144Y416642D01*
X1053702Y415084D01*
X1055570Y414310D01*
Y418510D01*
D02*
G37*
G36*
X922311D02*
X918110D01*
Y414310D01*
X919978Y415084D01*
X921537Y416642D01*
X922311Y418510D01*
D02*
G37*
G36*
X915570D02*
X911370D01*
X912144Y416642D01*
X913702Y415084D01*
X915570Y414310D01*
Y418510D01*
D02*
G37*
G36*
X852311D02*
X848110D01*
Y414310D01*
X849978Y415084D01*
X851537Y416642D01*
X852311Y418510D01*
D02*
G37*
G36*
X845570D02*
X841370D01*
X842144Y416642D01*
X843702Y415084D01*
X845570Y414310D01*
Y418510D01*
D02*
G37*
G36*
X782311D02*
X778110D01*
Y414310D01*
X779978Y415084D01*
X781537Y416642D01*
X782311Y418510D01*
D02*
G37*
G36*
X775570D02*
X771370D01*
X772144Y416642D01*
X773702Y415084D01*
X775570Y414310D01*
Y418510D01*
D02*
G37*
G36*
X1093110Y355251D02*
Y351050D01*
X1097311D01*
X1096537Y352918D01*
X1094978Y354477D01*
X1093110Y355251D01*
D02*
G37*
G36*
X1090570D02*
X1088702Y354477D01*
X1087144Y352918D01*
X1086370Y351050D01*
X1090570D01*
Y355251D01*
D02*
G37*
G36*
X1023110D02*
Y351050D01*
X1027311D01*
X1026537Y352918D01*
X1024978Y354477D01*
X1023110Y355251D01*
D02*
G37*
G36*
X1020570D02*
X1018702Y354477D01*
X1017144Y352918D01*
X1016370Y351050D01*
X1020570D01*
Y355251D01*
D02*
G37*
G36*
X953110D02*
Y351050D01*
X957311D01*
X956537Y352918D01*
X954978Y354477D01*
X953110Y355251D01*
D02*
G37*
G36*
X950570D02*
X948702Y354477D01*
X947144Y352918D01*
X946370Y351050D01*
X950570D01*
Y355251D01*
D02*
G37*
G36*
X603110D02*
Y351050D01*
X607311D01*
X606537Y352918D01*
X604978Y354477D01*
X603110Y355251D01*
D02*
G37*
G36*
X600570D02*
X598702Y354477D01*
X597144Y352918D01*
X596370Y351050D01*
X600570D01*
Y355251D01*
D02*
G37*
G36*
X463110D02*
Y351050D01*
X467310D01*
X466537Y352918D01*
X464978Y354477D01*
X463110Y355251D01*
D02*
G37*
G36*
X460570D02*
X458702Y354477D01*
X457144Y352918D01*
X456370Y351050D01*
X460570D01*
Y355251D01*
D02*
G37*
G36*
X253110D02*
Y351050D01*
X257311D01*
X256537Y352918D01*
X254978Y354477D01*
X253110Y355251D01*
D02*
G37*
G36*
X250570D02*
X248702Y354477D01*
X247143Y352918D01*
X246370Y351050D01*
X250570D01*
Y355251D01*
D02*
G37*
G36*
X1097311Y348510D02*
X1093110D01*
Y344310D01*
X1094978Y345084D01*
X1096537Y346642D01*
X1097311Y348510D01*
D02*
G37*
G36*
X1090570D02*
X1086370D01*
X1087144Y346642D01*
X1088702Y345084D01*
X1090570Y344310D01*
Y348510D01*
D02*
G37*
G36*
X1027311D02*
X1023110D01*
Y344310D01*
X1024978Y345084D01*
X1026537Y346642D01*
X1027311Y348510D01*
D02*
G37*
G36*
X1020570D02*
X1016370D01*
X1017144Y346642D01*
X1018702Y345084D01*
X1020570Y344310D01*
Y348510D01*
D02*
G37*
G36*
X957311D02*
X953110D01*
Y344310D01*
X954978Y345084D01*
X956537Y346642D01*
X957311Y348510D01*
D02*
G37*
G36*
X950570D02*
X946370D01*
X947144Y346642D01*
X948702Y345084D01*
X950570Y344310D01*
Y348510D01*
D02*
G37*
G36*
X607311D02*
X603110D01*
Y344310D01*
X604978Y345084D01*
X606537Y346642D01*
X607311Y348510D01*
D02*
G37*
G36*
X600570D02*
X596370D01*
X597144Y346642D01*
X598702Y345084D01*
X600570Y344310D01*
Y348510D01*
D02*
G37*
G36*
X467310D02*
X463110D01*
Y344310D01*
X464978Y345084D01*
X466537Y346642D01*
X467310Y348510D01*
D02*
G37*
G36*
X460570D02*
X456370D01*
X457144Y346642D01*
X458702Y345084D01*
X460570Y344310D01*
Y348510D01*
D02*
G37*
G36*
X257311D02*
X253110D01*
Y344310D01*
X254978Y345084D01*
X256537Y346642D01*
X257311Y348510D01*
D02*
G37*
G36*
X250570D02*
X246370D01*
X247143Y346642D01*
X248702Y345084D01*
X250570Y344310D01*
Y348510D01*
D02*
G37*
G36*
X216216Y336333D02*
Y333756D01*
X218793D01*
X218371Y334775D01*
X217234Y335911D01*
X216216Y336333D01*
D02*
G37*
G36*
X213676D02*
X212658Y335911D01*
X211521Y334775D01*
X211099Y333756D01*
X213676D01*
Y336333D01*
D02*
G37*
G36*
X197866D02*
Y333756D01*
X200443D01*
X200021Y334775D01*
X198884Y335911D01*
X197866Y336333D01*
D02*
G37*
G36*
X195326D02*
X194307Y335911D01*
X193171Y334775D01*
X192749Y333756D01*
X195326D01*
Y336333D01*
D02*
G37*
G36*
X213676Y331216D02*
X211099D01*
X211521Y330197D01*
X212658Y329061D01*
X213676Y328639D01*
Y331216D01*
D02*
G37*
G36*
X200443Y331216D02*
X197866D01*
Y328639D01*
X198884Y329061D01*
X200021Y330197D01*
X200443Y331216D01*
D02*
G37*
G36*
X195326D02*
X192749D01*
X193171Y330197D01*
X194307Y329061D01*
X195326Y328639D01*
Y331216D01*
D02*
G37*
G36*
X218793Y331216D02*
X216216D01*
Y328639D01*
X217234Y329061D01*
X218371Y330197D01*
X218793Y331216D01*
D02*
G37*
G36*
X207041Y327158D02*
Y324581D01*
X209618D01*
X209196Y325600D01*
X208060Y326736D01*
X207041Y327158D01*
D02*
G37*
G36*
X204501D02*
X203482Y326736D01*
X202346Y325600D01*
X201924Y324581D01*
X204501D01*
Y327158D01*
D02*
G37*
G36*
X225391D02*
Y324581D01*
X227968D01*
X227546Y325600D01*
X226409Y326736D01*
X225391Y327158D01*
D02*
G37*
G36*
X188691D02*
Y324581D01*
X191268D01*
X190846Y325600D01*
X189709Y326736D01*
X188691Y327158D01*
D02*
G37*
G36*
X222851D02*
X221833Y326736D01*
X220696Y325600D01*
X220274Y324581D01*
X222851D01*
Y327158D01*
D02*
G37*
G36*
X186151D02*
X185133Y326736D01*
X183996Y325600D01*
X183574Y324581D01*
X186151D01*
Y327158D01*
D02*
G37*
G36*
X204501Y322041D02*
X201924D01*
X202346Y321022D01*
X203482Y319886D01*
X204501Y319464D01*
Y322041D01*
D02*
G37*
G36*
X227968Y322041D02*
X225391D01*
Y319464D01*
X226409Y319886D01*
X227546Y321022D01*
X227968Y322041D01*
D02*
G37*
G36*
X191268D02*
X188691D01*
Y319464D01*
X189709Y319886D01*
X190846Y321022D01*
X191268Y322041D01*
D02*
G37*
G36*
X186151D02*
X183574D01*
X183996Y321022D01*
X185133Y319886D01*
X186151Y319464D01*
Y322041D01*
D02*
G37*
G36*
X222851D02*
X220274D01*
X220696Y321022D01*
X221833Y319886D01*
X222851Y319464D01*
Y322041D01*
D02*
G37*
G36*
X209618Y322041D02*
X207041D01*
Y319464D01*
X208060Y319886D01*
X209196Y321022D01*
X209618Y322041D01*
D02*
G37*
G36*
X216216Y317983D02*
Y315406D01*
X218793D01*
X218371Y316425D01*
X217234Y317561D01*
X216216Y317983D01*
D02*
G37*
G36*
X213676D02*
X212658Y317561D01*
X211521Y316425D01*
X211099Y315406D01*
X213676D01*
Y317983D01*
D02*
G37*
G36*
X197866D02*
Y315406D01*
X200443D01*
X200021Y316425D01*
X198884Y317561D01*
X197866Y317983D01*
D02*
G37*
G36*
X195326D02*
X194307Y317561D01*
X193171Y316425D01*
X192749Y315406D01*
X195326D01*
Y317983D01*
D02*
G37*
G36*
X200443Y312866D02*
X197866D01*
Y310289D01*
X198884Y310711D01*
X200021Y311847D01*
X200443Y312866D01*
D02*
G37*
G36*
X218793Y312866D02*
X216216D01*
Y310289D01*
X217234Y310711D01*
X218371Y311847D01*
X218793Y312866D01*
D02*
G37*
G36*
X213676D02*
X211099D01*
X211521Y311847D01*
X212658Y310711D01*
X213676Y310289D01*
Y312866D01*
D02*
G37*
G36*
X195326Y312866D02*
X192749D01*
X193171Y311847D01*
X194307Y310711D01*
X195326Y310289D01*
Y312866D01*
D02*
G37*
G36*
X207041Y308808D02*
Y306231D01*
X209618D01*
X209196Y307250D01*
X208060Y308386D01*
X207041Y308808D01*
D02*
G37*
G36*
X204501D02*
X203482Y308386D01*
X202346Y307250D01*
X201924Y306231D01*
X204501D01*
Y308808D01*
D02*
G37*
G36*
X225391D02*
Y306231D01*
X227968D01*
X227546Y307250D01*
X226409Y308386D01*
X225391Y308808D01*
D02*
G37*
G36*
X188691D02*
Y306231D01*
X191268D01*
X190846Y307250D01*
X189709Y308386D01*
X188691Y308808D01*
D02*
G37*
G36*
X222851D02*
X221833Y308386D01*
X220696Y307250D01*
X220274Y306231D01*
X222851D01*
Y308808D01*
D02*
G37*
G36*
X186151D02*
X185133Y308386D01*
X183996Y307250D01*
X183574Y306231D01*
X186151D01*
Y308808D01*
D02*
G37*
G36*
X227968Y303691D02*
X225391D01*
Y301114D01*
X226409Y301536D01*
X227546Y302673D01*
X227968Y303691D01*
D02*
G37*
G36*
X191268D02*
X188691D01*
Y301114D01*
X189709Y301536D01*
X190846Y302673D01*
X191268Y303691D01*
D02*
G37*
G36*
X209618Y303691D02*
X207041D01*
Y301114D01*
X208060Y301536D01*
X209196Y302673D01*
X209618Y303691D01*
D02*
G37*
G36*
X204501D02*
X201924D01*
X202346Y302673D01*
X203482Y301536D01*
X204501Y301114D01*
Y303691D01*
D02*
G37*
G36*
X186151Y303691D02*
X183574D01*
X183996Y302673D01*
X185133Y301536D01*
X186151Y301114D01*
Y303691D01*
D02*
G37*
G36*
X222851D02*
X220274D01*
X220696Y302673D01*
X221833Y301536D01*
X222851Y301114D01*
Y303691D01*
D02*
G37*
G36*
X216216Y299633D02*
Y297056D01*
X218793D01*
X218371Y298074D01*
X217234Y299211D01*
X216216Y299633D01*
D02*
G37*
G36*
X213676D02*
X212658Y299211D01*
X211521Y298074D01*
X211099Y297056D01*
X213676D01*
Y299633D01*
D02*
G37*
G36*
X197866D02*
Y297056D01*
X200443D01*
X200021Y298074D01*
X198884Y299211D01*
X197866Y299633D01*
D02*
G37*
G36*
X195326D02*
X194307Y299211D01*
X193171Y298074D01*
X192749Y297056D01*
X195326D01*
Y299633D01*
D02*
G37*
G36*
X213676Y294516D02*
X211099D01*
X211521Y293498D01*
X212658Y292361D01*
X213676Y291939D01*
Y294516D01*
D02*
G37*
G36*
X200443Y294516D02*
X197866D01*
Y291939D01*
X198884Y292361D01*
X200021Y293498D01*
X200443Y294516D01*
D02*
G37*
G36*
X195326D02*
X192749D01*
X193171Y293498D01*
X194307Y292361D01*
X195326Y291939D01*
Y294516D01*
D02*
G37*
G36*
X218793Y294516D02*
X216216D01*
Y291939D01*
X217234Y292361D01*
X218371Y293498D01*
X218793Y294516D01*
D02*
G37*
G36*
X1128110Y285250D02*
Y281050D01*
X1132311D01*
X1131537Y282918D01*
X1129978Y284477D01*
X1128110Y285250D01*
D02*
G37*
G36*
X1125570D02*
X1123702Y284477D01*
X1122144Y282918D01*
X1121370Y281050D01*
X1125570D01*
Y285250D01*
D02*
G37*
G36*
X1058110D02*
Y281050D01*
X1062311D01*
X1061537Y282918D01*
X1059978Y284477D01*
X1058110Y285250D01*
D02*
G37*
G36*
X1055570D02*
X1053702Y284477D01*
X1052144Y282918D01*
X1051370Y281050D01*
X1055570D01*
Y285250D01*
D02*
G37*
G36*
X918110D02*
Y281050D01*
X922311D01*
X921537Y282918D01*
X919978Y284477D01*
X918110Y285250D01*
D02*
G37*
G36*
X915570D02*
X913702Y284477D01*
X912144Y282918D01*
X911370Y281050D01*
X915570D01*
Y285250D01*
D02*
G37*
G36*
X778110D02*
Y281050D01*
X782311D01*
X781537Y282918D01*
X779978Y284477D01*
X778110Y285250D01*
D02*
G37*
G36*
X775570D02*
X773702Y284477D01*
X772144Y282918D01*
X771370Y281050D01*
X775570D01*
Y285250D01*
D02*
G37*
G36*
X638110D02*
Y281050D01*
X642311D01*
X641537Y282918D01*
X639978Y284477D01*
X638110Y285250D01*
D02*
G37*
G36*
X635570D02*
X633702Y284477D01*
X632144Y282918D01*
X631370Y281050D01*
X635570D01*
Y285250D01*
D02*
G37*
G36*
X498110D02*
Y281050D01*
X502311D01*
X501537Y282918D01*
X499978Y284477D01*
X498110Y285250D01*
D02*
G37*
G36*
X495570D02*
X493702Y284477D01*
X492144Y282918D01*
X491370Y281050D01*
X495570D01*
Y285250D01*
D02*
G37*
G36*
X148110D02*
Y281050D01*
X152310D01*
X151537Y282918D01*
X149978Y284477D01*
X148110Y285250D01*
D02*
G37*
G36*
X145570D02*
X143702Y284477D01*
X142143Y282918D01*
X141370Y281050D01*
X145570D01*
Y285250D01*
D02*
G37*
G36*
X1132311Y278510D02*
X1128110D01*
Y274310D01*
X1129978Y275084D01*
X1131537Y276642D01*
X1132311Y278510D01*
D02*
G37*
G36*
X1125570D02*
X1121370D01*
X1122144Y276642D01*
X1123702Y275084D01*
X1125570Y274310D01*
Y278510D01*
D02*
G37*
G36*
X1062311D02*
X1058110D01*
Y274310D01*
X1059978Y275084D01*
X1061537Y276642D01*
X1062311Y278510D01*
D02*
G37*
G36*
X1055570D02*
X1051370D01*
X1052144Y276642D01*
X1053702Y275084D01*
X1055570Y274310D01*
Y278510D01*
D02*
G37*
G36*
X922311D02*
X918110D01*
Y274310D01*
X919978Y275084D01*
X921537Y276642D01*
X922311Y278510D01*
D02*
G37*
G36*
X915570D02*
X911370D01*
X912144Y276642D01*
X913702Y275084D01*
X915570Y274310D01*
Y278510D01*
D02*
G37*
G36*
X782311D02*
X778110D01*
Y274310D01*
X779978Y275084D01*
X781537Y276642D01*
X782311Y278510D01*
D02*
G37*
G36*
X775570D02*
X771370D01*
X772144Y276642D01*
X773702Y275084D01*
X775570Y274310D01*
Y278510D01*
D02*
G37*
G36*
X642311D02*
X638110D01*
Y274310D01*
X639978Y275084D01*
X641537Y276642D01*
X642311Y278510D01*
D02*
G37*
G36*
X635570D02*
X631370D01*
X632144Y276642D01*
X633702Y275084D01*
X635570Y274310D01*
Y278510D01*
D02*
G37*
G36*
X502311D02*
X498110D01*
Y274310D01*
X499978Y275084D01*
X501537Y276642D01*
X502311Y278510D01*
D02*
G37*
G36*
X495570D02*
X491370D01*
X492144Y276642D01*
X493702Y275084D01*
X495570Y274310D01*
Y278510D01*
D02*
G37*
G36*
X152310D02*
X148110D01*
Y274310D01*
X149978Y275084D01*
X151537Y276642D01*
X152310Y278510D01*
D02*
G37*
G36*
X145570D02*
X141370D01*
X142143Y276642D01*
X143702Y275084D01*
X145570Y274310D01*
Y278510D01*
D02*
G37*
G36*
X118871Y416726D02*
X55871D01*
X54880Y416529D01*
X54040Y415967D01*
X53478Y415127D01*
X53281Y414136D01*
Y234136D01*
X53478Y233145D01*
X54040Y232305D01*
X54880Y231743D01*
X55871Y231546D01*
X118871D01*
X119862Y231743D01*
X120702Y232305D01*
X121264Y233145D01*
X121461Y234136D01*
Y414136D01*
X121264Y415127D01*
X120702Y415967D01*
X119862Y416529D01*
X118871Y416726D01*
D02*
G37*
G36*
X1054152Y235338D02*
X1051508D01*
X1048955Y234654D01*
X1046665Y233332D01*
X1044796Y231463D01*
X1043474Y229173D01*
X1042790Y226620D01*
Y223976D01*
X1043474Y221423D01*
X1044796Y219133D01*
X1046665Y217264D01*
X1048955Y215942D01*
X1051508Y215258D01*
X1054152D01*
X1056705Y215942D01*
X1058995Y217264D01*
X1060864Y219133D01*
X1062186Y221423D01*
X1062870Y223976D01*
Y226620D01*
X1062186Y229173D01*
X1060864Y231463D01*
X1058995Y233332D01*
X1056705Y234654D01*
X1054152Y235338D01*
D02*
G37*
G36*
X1023110Y215250D02*
Y211050D01*
X1027311D01*
X1026537Y212918D01*
X1024978Y214477D01*
X1023110Y215250D01*
D02*
G37*
G36*
X1020570D02*
X1018702Y214477D01*
X1017144Y212918D01*
X1016370Y211050D01*
X1020570D01*
Y215250D01*
D02*
G37*
G36*
X953110D02*
Y211050D01*
X957311D01*
X956537Y212918D01*
X954978Y214477D01*
X953110Y215250D01*
D02*
G37*
G36*
X950570D02*
X948702Y214477D01*
X947144Y212918D01*
X946370Y211050D01*
X950570D01*
Y215250D01*
D02*
G37*
G36*
X813110D02*
Y211050D01*
X817311D01*
X816537Y212918D01*
X814978Y214477D01*
X813110Y215250D01*
D02*
G37*
G36*
X810570D02*
X808702Y214477D01*
X807144Y212918D01*
X806370Y211050D01*
X810570D01*
Y215250D01*
D02*
G37*
G36*
X743110D02*
Y211050D01*
X747311D01*
X746537Y212918D01*
X744978Y214477D01*
X743110Y215250D01*
D02*
G37*
G36*
X740570D02*
X738702Y214477D01*
X737144Y212918D01*
X736370Y211050D01*
X740570D01*
Y215250D01*
D02*
G37*
G36*
X603110D02*
Y211050D01*
X607311D01*
X606537Y212918D01*
X604978Y214477D01*
X603110Y215250D01*
D02*
G37*
G36*
X600570D02*
X598702Y214477D01*
X597144Y212918D01*
X596370Y211050D01*
X600570D01*
Y215250D01*
D02*
G37*
G36*
X463110D02*
Y211050D01*
X467310D01*
X466537Y212918D01*
X464978Y214477D01*
X463110Y215250D01*
D02*
G37*
G36*
X460570D02*
X458702Y214477D01*
X457144Y212918D01*
X456370Y211050D01*
X460570D01*
Y215250D01*
D02*
G37*
G36*
X393110D02*
Y211050D01*
X397310D01*
X396537Y212918D01*
X394978Y214477D01*
X393110Y215250D01*
D02*
G37*
G36*
X390570D02*
X388702Y214477D01*
X387144Y212918D01*
X386370Y211050D01*
X390570D01*
Y215250D01*
D02*
G37*
G36*
X253110D02*
Y211050D01*
X257311D01*
X256537Y212918D01*
X254978Y214477D01*
X253110Y215250D01*
D02*
G37*
G36*
X250570D02*
X248702Y214477D01*
X247143Y212918D01*
X246370Y211050D01*
X250570D01*
Y215250D01*
D02*
G37*
G36*
X43110D02*
Y211050D01*
X47311D01*
X46537Y212918D01*
X44978Y214477D01*
X43110Y215250D01*
D02*
G37*
G36*
X40570D02*
X38702Y214477D01*
X37143Y212918D01*
X36370Y211050D01*
X40570D01*
Y215250D01*
D02*
G37*
G36*
X360834Y226568D02*
X358494D01*
X356233Y225962D01*
X354205Y224792D01*
X352550Y223137D01*
X351380Y221109D01*
X350774Y218848D01*
Y216508D01*
X351335Y214413D01*
X322398Y185475D01*
X252997D01*
X252224Y186815D01*
X250569Y188470D01*
X248541Y189640D01*
X246280Y190246D01*
X243940D01*
X241679Y189640D01*
X239651Y188470D01*
X237996Y186815D01*
X236826Y184787D01*
X236220Y182526D01*
Y180186D01*
X236826Y177925D01*
X237996Y175897D01*
X239651Y174242D01*
X241679Y173072D01*
X243940Y172466D01*
X246280D01*
X248541Y173072D01*
X250569Y174242D01*
X252224Y175897D01*
X252997Y177237D01*
X324104D01*
X325680Y177550D01*
X327017Y178443D01*
X357601Y209027D01*
X358494Y208788D01*
X360834D01*
X363095Y209394D01*
X365123Y210564D01*
X366778Y212219D01*
X367948Y214247D01*
X368554Y216508D01*
Y218848D01*
X367948Y221109D01*
X366778Y223137D01*
X365123Y224792D01*
X363095Y225962D01*
X360834Y226568D01*
D02*
G37*
G36*
X1027311Y208510D02*
X1023110D01*
Y204310D01*
X1024978Y205084D01*
X1026537Y206642D01*
X1027311Y208510D01*
D02*
G37*
G36*
X1020570D02*
X1016370D01*
X1017144Y206642D01*
X1018702Y205084D01*
X1020570Y204310D01*
Y208510D01*
D02*
G37*
G36*
X957311D02*
X953110D01*
Y204310D01*
X954978Y205084D01*
X956537Y206642D01*
X957311Y208510D01*
D02*
G37*
G36*
X950570D02*
X946370D01*
X947144Y206642D01*
X948702Y205084D01*
X950570Y204310D01*
Y208510D01*
D02*
G37*
G36*
X817311D02*
X813110D01*
Y204310D01*
X814978Y205084D01*
X816537Y206642D01*
X817311Y208510D01*
D02*
G37*
G36*
X810570D02*
X806370D01*
X807144Y206642D01*
X808702Y205084D01*
X810570Y204310D01*
Y208510D01*
D02*
G37*
G36*
X747311D02*
X743110D01*
Y204310D01*
X744978Y205084D01*
X746537Y206642D01*
X747311Y208510D01*
D02*
G37*
G36*
X740570D02*
X736370D01*
X737144Y206642D01*
X738702Y205084D01*
X740570Y204310D01*
Y208510D01*
D02*
G37*
G36*
X607311D02*
X603110D01*
Y204310D01*
X604978Y205084D01*
X606537Y206642D01*
X607311Y208510D01*
D02*
G37*
G36*
X600570D02*
X596370D01*
X597144Y206642D01*
X598702Y205084D01*
X600570Y204310D01*
Y208510D01*
D02*
G37*
G36*
X467310D02*
X463110D01*
Y204310D01*
X464978Y205084D01*
X466537Y206642D01*
X467310Y208510D01*
D02*
G37*
G36*
X460570D02*
X456370D01*
X457144Y206642D01*
X458702Y205084D01*
X460570Y204310D01*
Y208510D01*
D02*
G37*
G36*
X397310D02*
X393110D01*
Y204310D01*
X394978Y205084D01*
X396537Y206642D01*
X397310Y208510D01*
D02*
G37*
G36*
X390570D02*
X386370D01*
X387144Y206642D01*
X388702Y205084D01*
X390570Y204310D01*
Y208510D01*
D02*
G37*
G36*
X257311D02*
X253110D01*
Y204310D01*
X254978Y205084D01*
X256537Y206642D01*
X257311Y208510D01*
D02*
G37*
G36*
X250570D02*
X246370D01*
X247143Y206642D01*
X248702Y205084D01*
X250570Y204310D01*
Y208510D01*
D02*
G37*
G36*
X47311D02*
X43110D01*
Y204310D01*
X44978Y205084D01*
X46537Y206642D01*
X47311Y208510D01*
D02*
G37*
G36*
X40570D02*
X36370D01*
X37143Y206642D01*
X38702Y205084D01*
X40570Y204310D01*
Y208510D01*
D02*
G37*
G36*
X1062870Y209938D02*
X1042790D01*
Y189858D01*
X1062870D01*
Y209938D01*
D02*
G37*
G36*
X1127640Y205620D02*
X1107560D01*
Y185540D01*
X1127640D01*
Y205620D01*
D02*
G37*
G36*
X1118922Y180220D02*
X1118870D01*
Y171450D01*
X1127640D01*
Y171502D01*
X1126956Y174055D01*
X1125634Y176345D01*
X1123765Y178214D01*
X1121475Y179536D01*
X1118922Y180220D01*
D02*
G37*
G36*
X1116330D02*
X1116278D01*
X1113725Y179536D01*
X1111435Y178214D01*
X1109566Y176345D01*
X1108244Y174055D01*
X1107560Y171502D01*
Y171450D01*
X1116330D01*
Y180220D01*
D02*
G37*
G36*
X1127640Y168910D02*
X1118870D01*
Y160140D01*
X1118922D01*
X1121475Y160824D01*
X1123765Y162146D01*
X1125634Y164015D01*
X1126956Y166305D01*
X1127640Y168858D01*
Y168910D01*
D02*
G37*
G36*
X1116330D02*
X1107560D01*
Y168858D01*
X1108244Y166305D01*
X1109566Y164015D01*
X1111435Y162146D01*
X1113725Y160824D01*
X1116278Y160140D01*
X1116330D01*
Y168910D01*
D02*
G37*
G36*
X918110Y145251D02*
Y141050D01*
X922311D01*
X921537Y142918D01*
X919978Y144477D01*
X918110Y145251D01*
D02*
G37*
G36*
X915570D02*
X913702Y144477D01*
X912144Y142918D01*
X911370Y141050D01*
X915570D01*
Y145251D01*
D02*
G37*
G36*
X848110D02*
Y141050D01*
X852311D01*
X851537Y142918D01*
X849978Y144477D01*
X848110Y145251D01*
D02*
G37*
G36*
X845570D02*
X843702Y144477D01*
X842144Y142918D01*
X841370Y141050D01*
X845570D01*
Y145251D01*
D02*
G37*
G36*
X778110D02*
Y141050D01*
X782311D01*
X781537Y142918D01*
X779978Y144477D01*
X778110Y145251D01*
D02*
G37*
G36*
X775570D02*
X773702Y144477D01*
X772144Y142918D01*
X771370Y141050D01*
X775570D01*
Y145251D01*
D02*
G37*
G36*
X638110D02*
Y141050D01*
X642311D01*
X641537Y142918D01*
X639978Y144477D01*
X638110Y145251D01*
D02*
G37*
G36*
X635570D02*
X633702Y144477D01*
X632144Y142918D01*
X631370Y141050D01*
X635570D01*
Y145251D01*
D02*
G37*
G36*
X498110D02*
Y141050D01*
X502311D01*
X501537Y142918D01*
X499978Y144477D01*
X498110Y145251D01*
D02*
G37*
G36*
X495570D02*
X493702Y144477D01*
X492144Y142918D01*
X491370Y141050D01*
X495570D01*
Y145251D01*
D02*
G37*
G36*
X428110D02*
Y141050D01*
X432310D01*
X431537Y142918D01*
X429978Y144477D01*
X428110Y145251D01*
D02*
G37*
G36*
X425570D02*
X423702Y144477D01*
X422144Y142918D01*
X421370Y141050D01*
X425570D01*
Y145251D01*
D02*
G37*
G36*
X358110D02*
Y141050D01*
X362310D01*
X361537Y142918D01*
X359978Y144477D01*
X358110Y145251D01*
D02*
G37*
G36*
X355570D02*
X353702Y144477D01*
X352144Y142918D01*
X351370Y141050D01*
X355570D01*
Y145251D01*
D02*
G37*
G36*
X288110D02*
Y141050D01*
X292311D01*
X291537Y142918D01*
X289978Y144477D01*
X288110Y145251D01*
D02*
G37*
G36*
X285570D02*
X283702Y144477D01*
X282143Y142918D01*
X281370Y141050D01*
X285570D01*
Y145251D01*
D02*
G37*
G36*
X218110D02*
Y141050D01*
X222311D01*
X221537Y142918D01*
X219978Y144477D01*
X218110Y145251D01*
D02*
G37*
G36*
X215570D02*
X213702Y144477D01*
X212143Y142918D01*
X211370Y141050D01*
X215570D01*
Y145251D01*
D02*
G37*
G36*
X148110D02*
Y141050D01*
X152310D01*
X151537Y142918D01*
X149978Y144477D01*
X148110Y145251D01*
D02*
G37*
G36*
X145570D02*
X143702Y144477D01*
X142143Y142918D01*
X141370Y141050D01*
X145570D01*
Y145251D01*
D02*
G37*
G36*
X1118922Y154820D02*
X1116278D01*
X1113725Y154136D01*
X1111435Y152814D01*
X1109566Y150945D01*
X1108244Y148655D01*
X1107560Y146102D01*
Y143458D01*
X1108244Y140905D01*
X1109566Y138615D01*
X1111435Y136746D01*
X1113725Y135424D01*
X1116278Y134740D01*
X1118922D01*
X1121475Y135424D01*
X1123765Y136746D01*
X1125634Y138615D01*
X1126956Y140905D01*
X1127640Y143458D01*
Y146102D01*
X1126956Y148655D01*
X1125634Y150945D01*
X1123765Y152814D01*
X1121475Y154136D01*
X1118922Y154820D01*
D02*
G37*
G36*
X922311Y138510D02*
X918110D01*
Y134310D01*
X919978Y135084D01*
X921537Y136642D01*
X922311Y138510D01*
D02*
G37*
G36*
X915570D02*
X911370D01*
X912144Y136642D01*
X913702Y135084D01*
X915570Y134310D01*
Y138510D01*
D02*
G37*
G36*
X852311D02*
X848110D01*
Y134310D01*
X849978Y135084D01*
X851537Y136642D01*
X852311Y138510D01*
D02*
G37*
G36*
X845570D02*
X841370D01*
X842144Y136642D01*
X843702Y135084D01*
X845570Y134310D01*
Y138510D01*
D02*
G37*
G36*
X782311D02*
X778110D01*
Y134310D01*
X779978Y135084D01*
X781537Y136642D01*
X782311Y138510D01*
D02*
G37*
G36*
X775570D02*
X771370D01*
X772144Y136642D01*
X773702Y135084D01*
X775570Y134310D01*
Y138510D01*
D02*
G37*
G36*
X642311D02*
X638110D01*
Y134310D01*
X639978Y135084D01*
X641537Y136642D01*
X642311Y138510D01*
D02*
G37*
G36*
X635570D02*
X631370D01*
X632144Y136642D01*
X633702Y135084D01*
X635570Y134310D01*
Y138510D01*
D02*
G37*
G36*
X502311D02*
X498110D01*
Y134310D01*
X499978Y135084D01*
X501537Y136642D01*
X502311Y138510D01*
D02*
G37*
G36*
X495570D02*
X491370D01*
X492144Y136642D01*
X493702Y135084D01*
X495570Y134310D01*
Y138510D01*
D02*
G37*
G36*
X432310D02*
X428110D01*
Y134310D01*
X429978Y135084D01*
X431537Y136642D01*
X432310Y138510D01*
D02*
G37*
G36*
X425570D02*
X421370D01*
X422144Y136642D01*
X423702Y135084D01*
X425570Y134310D01*
Y138510D01*
D02*
G37*
G36*
X362310D02*
X358110D01*
Y134310D01*
X359978Y135084D01*
X361537Y136642D01*
X362310Y138510D01*
D02*
G37*
G36*
X355570D02*
X351370D01*
X352144Y136642D01*
X353702Y135084D01*
X355570Y134310D01*
Y138510D01*
D02*
G37*
G36*
X292311D02*
X288110D01*
Y134310D01*
X289978Y135084D01*
X291537Y136642D01*
X292311Y138510D01*
D02*
G37*
G36*
X285570D02*
X281370D01*
X282143Y136642D01*
X283702Y135084D01*
X285570Y134310D01*
Y138510D01*
D02*
G37*
G36*
X222311D02*
X218110D01*
Y134310D01*
X219978Y135084D01*
X221537Y136642D01*
X222311Y138510D01*
D02*
G37*
G36*
X215570D02*
X211370D01*
X212143Y136642D01*
X213702Y135084D01*
X215570Y134310D01*
Y138510D01*
D02*
G37*
G36*
X152310D02*
X148110D01*
Y134310D01*
X149978Y135084D01*
X151537Y136642D01*
X152310Y138510D01*
D02*
G37*
G36*
X145570D02*
X141370D01*
X142143Y136642D01*
X143702Y135084D01*
X145570Y134310D01*
Y138510D01*
D02*
G37*
G36*
X1062616Y132468D02*
X1042536D01*
Y112388D01*
X1062616D01*
Y132468D01*
D02*
G37*
G36*
X1118922Y129420D02*
X1116278D01*
X1113725Y128736D01*
X1111435Y127414D01*
X1109566Y125545D01*
X1108244Y123255D01*
X1107560Y120702D01*
Y118058D01*
X1108244Y115505D01*
X1109566Y113215D01*
X1111435Y111346D01*
X1113725Y110024D01*
X1116278Y109340D01*
X1118922D01*
X1121475Y110024D01*
X1123765Y111346D01*
X1125634Y113215D01*
X1126956Y115505D01*
X1127640Y118058D01*
Y120702D01*
X1126956Y123255D01*
X1125634Y125545D01*
X1123765Y127414D01*
X1121475Y128736D01*
X1118922Y129420D01*
D02*
G37*
G36*
X748692Y165354D02*
X746352D01*
X744091Y164748D01*
X742063Y163578D01*
X740408Y161923D01*
X739238Y159895D01*
X738632Y157634D01*
Y155294D01*
X739238Y153033D01*
X740408Y151005D01*
X742063Y149350D01*
X744091Y148180D01*
X744109Y148175D01*
Y147826D01*
X744165Y147543D01*
Y106693D01*
X742825Y105920D01*
X741170Y104265D01*
X740000Y102237D01*
X739394Y99976D01*
Y97636D01*
X740000Y95375D01*
X741170Y93347D01*
X742825Y91692D01*
X744853Y90522D01*
X747114Y89916D01*
X749454D01*
X751715Y90522D01*
X753743Y91692D01*
X755398Y93347D01*
X756568Y95375D01*
X757174Y97636D01*
Y99976D01*
X756568Y102237D01*
X755398Y104265D01*
X753743Y105920D01*
X752403Y106693D01*
Y147769D01*
X752347Y148052D01*
Y148984D01*
X752981Y149350D01*
X754636Y151005D01*
X755806Y153033D01*
X756412Y155294D01*
Y157634D01*
X755806Y159895D01*
X754636Y161923D01*
X752981Y163578D01*
X750953Y164748D01*
X748692Y165354D01*
D02*
G37*
G36*
X1053898Y107068D02*
X1051254D01*
X1048701Y106384D01*
X1046411Y105062D01*
X1044542Y103193D01*
X1043220Y100903D01*
X1042536Y98350D01*
Y95706D01*
X1043220Y93153D01*
X1044542Y90863D01*
X1046411Y88994D01*
X1048701Y87672D01*
X1051254Y86988D01*
X1053898D01*
X1056451Y87672D01*
X1058741Y88994D01*
X1060610Y90863D01*
X1061932Y93153D01*
X1062616Y95706D01*
Y98350D01*
X1061932Y100903D01*
X1060610Y103193D01*
X1058741Y105062D01*
X1056451Y106384D01*
X1053898Y107068D01*
D02*
G37*
G36*
X1093110Y75251D02*
Y71050D01*
X1097311D01*
X1096537Y72918D01*
X1094978Y74477D01*
X1093110Y75251D01*
D02*
G37*
G36*
X1090570D02*
X1088702Y74477D01*
X1087144Y72918D01*
X1086370Y71050D01*
X1090570D01*
Y75251D01*
D02*
G37*
G36*
X813110D02*
Y71050D01*
X817311D01*
X816537Y72918D01*
X814978Y74477D01*
X813110Y75251D01*
D02*
G37*
G36*
X810570D02*
X808702Y74477D01*
X807144Y72918D01*
X806370Y71050D01*
X810570D01*
Y75251D01*
D02*
G37*
G36*
X603110D02*
Y71050D01*
X607311D01*
X606537Y72918D01*
X604978Y74477D01*
X603110Y75251D01*
D02*
G37*
G36*
X600570D02*
X598702Y74477D01*
X597144Y72918D01*
X596370Y71050D01*
X600570D01*
Y75251D01*
D02*
G37*
G36*
X533110D02*
Y71050D01*
X537311D01*
X536537Y72918D01*
X534978Y74477D01*
X533110Y75251D01*
D02*
G37*
G36*
X530570D02*
X528702Y74477D01*
X527144Y72918D01*
X526370Y71050D01*
X530570D01*
Y75251D01*
D02*
G37*
G36*
X463110D02*
Y71050D01*
X467310D01*
X466537Y72918D01*
X464978Y74477D01*
X463110Y75251D01*
D02*
G37*
G36*
X460570D02*
X458702Y74477D01*
X457144Y72918D01*
X456370Y71050D01*
X460570D01*
Y75251D01*
D02*
G37*
G36*
X183110D02*
Y71050D01*
X187311D01*
X186537Y72918D01*
X184978Y74477D01*
X183110Y75251D01*
D02*
G37*
G36*
X180570D02*
X178702Y74477D01*
X177143Y72918D01*
X176370Y71050D01*
X180570D01*
Y75251D01*
D02*
G37*
G36*
X43110D02*
Y71050D01*
X47311D01*
X46537Y72918D01*
X44978Y74477D01*
X43110Y75251D01*
D02*
G37*
G36*
X40570D02*
X38702Y74477D01*
X37143Y72918D01*
X36370Y71050D01*
X40570D01*
Y75251D01*
D02*
G37*
G36*
X1097311Y68510D02*
X1093110D01*
Y64310D01*
X1094978Y65083D01*
X1096537Y66642D01*
X1097311Y68510D01*
D02*
G37*
G36*
X1090570D02*
X1086370D01*
X1087144Y66642D01*
X1088702Y65083D01*
X1090570Y64310D01*
Y68510D01*
D02*
G37*
G36*
X817311D02*
X813110D01*
Y64310D01*
X814978Y65083D01*
X816537Y66642D01*
X817311Y68510D01*
D02*
G37*
G36*
X810570D02*
X806370D01*
X807144Y66642D01*
X808702Y65083D01*
X810570Y64310D01*
Y68510D01*
D02*
G37*
G36*
X607311D02*
X603110D01*
Y64310D01*
X604978Y65083D01*
X606537Y66642D01*
X607311Y68510D01*
D02*
G37*
G36*
X600570D02*
X596370D01*
X597144Y66642D01*
X598702Y65083D01*
X600570Y64310D01*
Y68510D01*
D02*
G37*
G36*
X537311D02*
X533110D01*
Y64310D01*
X534978Y65083D01*
X536537Y66642D01*
X537311Y68510D01*
D02*
G37*
G36*
X530570D02*
X526370D01*
X527144Y66642D01*
X528702Y65083D01*
X530570Y64310D01*
Y68510D01*
D02*
G37*
G36*
X467310D02*
X463110D01*
Y64310D01*
X464978Y65083D01*
X466537Y66642D01*
X467310Y68510D01*
D02*
G37*
G36*
X460570D02*
X456370D01*
X457144Y66642D01*
X458702Y65083D01*
X460570Y64310D01*
Y68510D01*
D02*
G37*
G36*
X187311D02*
X183110D01*
Y64310D01*
X184978Y65083D01*
X186537Y66642D01*
X187311Y68510D01*
D02*
G37*
G36*
X180570D02*
X176370D01*
X177143Y66642D01*
X178702Y65083D01*
X180570Y64310D01*
Y68510D01*
D02*
G37*
G36*
X47311D02*
X43110D01*
Y64310D01*
X44978Y65083D01*
X46537Y66642D01*
X47311Y68510D01*
D02*
G37*
G36*
X40570D02*
X36370D01*
X37143Y66642D01*
X38702Y65083D01*
X40570Y64310D01*
Y68510D01*
D02*
G37*
G36*
X34732Y53782D02*
X30292D01*
X25937Y52916D01*
X21835Y51217D01*
X18144Y48750D01*
X15004Y45610D01*
X12537Y41919D01*
X10838Y37817D01*
X9972Y33462D01*
Y29022D01*
X10838Y24667D01*
X12537Y20565D01*
X15004Y16874D01*
X18144Y13734D01*
X21835Y11267D01*
X25937Y9568D01*
X30292Y8702D01*
X34732D01*
X39087Y9568D01*
X43189Y11267D01*
X46880Y13734D01*
X50020Y16874D01*
X52487Y20565D01*
X54186Y24667D01*
X55052Y29022D01*
Y33462D01*
X54186Y37817D01*
X52487Y41919D01*
X50020Y45610D01*
X46880Y48750D01*
X43189Y51217D01*
X39087Y52916D01*
X34732Y53782D01*
D02*
G37*
G36*
X1122106Y51750D02*
X1117666D01*
X1113311Y50884D01*
X1109209Y49185D01*
X1105518Y46718D01*
X1102378Y43578D01*
X1099911Y39887D01*
X1098212Y35785D01*
X1097346Y31430D01*
Y26990D01*
X1098212Y22635D01*
X1099911Y18533D01*
X1102378Y14842D01*
X1105518Y11702D01*
X1109209Y9235D01*
X1113311Y7536D01*
X1117666Y6670D01*
X1122106D01*
X1126461Y7536D01*
X1130563Y9235D01*
X1134254Y11702D01*
X1137394Y14842D01*
X1139861Y18533D01*
X1141560Y22635D01*
X1142426Y26990D01*
Y31430D01*
X1141560Y35785D01*
X1139861Y39887D01*
X1137394Y43578D01*
X1134254Y46718D01*
X1130563Y49185D01*
X1126461Y50884D01*
X1122106Y51750D01*
D02*
G37*
%LPD*%
D57*
X148844Y533654D02*
X168148D01*
X200914Y500888D01*
D59*
X359664Y216916D02*
Y217678D01*
X324104Y181356D02*
X359664Y216916D01*
X245110Y181356D02*
X324104D01*
X364744Y459486D02*
X392430Y431800D01*
X289306Y459486D02*
X364744D01*
X383032Y478028D02*
X383540Y478536D01*
X259588Y478028D02*
X383032D01*
X259080Y477520D02*
X259588Y478028D01*
X748284Y98806D02*
Y147769D01*
X748228Y147826D02*
X748284Y147769D01*
X747522Y156464D02*
X748228Y155758D01*
Y147826D02*
Y155758D01*
D60*
X77724Y556260D02*
D03*
X302514Y555498D02*
D03*
X1117600Y170180D02*
D03*
Y119380D02*
D03*
Y144780D02*
D03*
X1052830Y225298D02*
D03*
X1052576Y97028D02*
D03*
X226314Y555498D02*
D03*
X128524Y556260D02*
D03*
X251714Y555498D02*
D03*
X277114D02*
D03*
X103124Y556260D02*
D03*
X327914Y555498D02*
D03*
D61*
X187421Y304961D02*
D03*
Y323311D02*
D03*
X196596Y295786D02*
D03*
Y314136D02*
D03*
Y332486D02*
D03*
X205771Y304961D02*
D03*
Y323311D02*
D03*
X214946Y295786D02*
D03*
Y314136D02*
D03*
Y332486D02*
D03*
X224121Y304961D02*
D03*
Y323311D02*
D03*
D62*
X64770Y484632D02*
D03*
X1115568Y567436D02*
D03*
X32512Y31242D02*
D03*
X1119886Y29210D02*
D03*
D63*
X1117600Y195580D02*
D03*
X1052830Y199898D02*
D03*
X1052576Y122428D02*
D03*
D64*
X200914Y555498D02*
D03*
X52324Y556260D02*
D03*
D65*
X1126840Y419780D02*
D03*
X1091840Y349780D02*
D03*
X1126840Y279780D02*
D03*
X1091840Y69780D02*
D03*
X1056840Y559780D02*
D03*
Y419780D02*
D03*
X1021840Y349780D02*
D03*
X1056840Y279780D02*
D03*
X1021840Y209780D02*
D03*
X986840Y559780D02*
D03*
X951840Y349780D02*
D03*
Y209780D02*
D03*
X916840Y559780D02*
D03*
X881840Y489780D02*
D03*
X916840Y419780D02*
D03*
Y279780D02*
D03*
Y139780D02*
D03*
X846840Y559780D02*
D03*
Y419780D02*
D03*
X811840Y209780D02*
D03*
X846840Y139780D02*
D03*
X811840Y69780D02*
D03*
X776840Y559780D02*
D03*
Y419780D02*
D03*
Y279780D02*
D03*
X741840Y209780D02*
D03*
X776840Y139780D02*
D03*
X601840Y489780D02*
D03*
Y349780D02*
D03*
X636840Y279780D02*
D03*
X601840Y209780D02*
D03*
X636840Y139780D02*
D03*
X601840Y69780D02*
D03*
X531840D02*
D03*
X461840Y489780D02*
D03*
Y349780D02*
D03*
X496840Y279780D02*
D03*
X461840Y209780D02*
D03*
X496840Y139780D02*
D03*
X461840Y69780D02*
D03*
X426840Y559780D02*
D03*
X391840Y209780D02*
D03*
X426840Y139780D02*
D03*
X356840D02*
D03*
X251840Y349780D02*
D03*
Y209780D02*
D03*
X286840Y139780D02*
D03*
X216840D02*
D03*
X181840Y69780D02*
D03*
X146840Y279780D02*
D03*
Y139780D02*
D03*
X41840Y209780D02*
D03*
Y69780D02*
D03*
X655828Y554736D02*
D03*
X675132D02*
D03*
X664972Y554850D02*
D03*
D66*
X359664Y217678D02*
D03*
X392430Y431800D02*
D03*
X200914Y500888D02*
D03*
X383540Y478536D02*
D03*
X148844Y533654D02*
D03*
X289306Y459486D02*
D03*
X259080Y477520D02*
D03*
X747522Y156464D02*
D03*
X748284Y98806D02*
D03*
X245110Y181356D02*
D03*
M02*
