M48
;Layer_Color=9474304
;FILE_FORMAT=4:4
METRIC,LZ
;TYPE=PLATED
T01F00S00C0.2000
T02F00S00C0.3000
T03F00S00C0.7112
T04F00S00C0.9000
;TYPE=NON_PLATED
T05F00S00C3.2000
%
T01
X00196596Y00295786
X00214946
X00205771Y00304961
X00214946Y00314136
X00196596
X00187421Y00304961
Y00323311
X00196596Y00332486
X00205771Y00323311
X00214946Y00332486
X00224121Y00323311
Y00304961
T02
X0109184Y0006978
X0112684Y0027978
X0105684
X0102184Y0020978
X0095184
X0091684Y0027978
Y0013978
X0084684
X0077684
X0081184Y0020978
X0074184
X0077684Y0027978
X0081184Y0006978
X0060184
X0053184
X0046184
X0049684Y0013978
X0042684
X0035684
X0028684
X0039184Y0020978
X0046184
X0049684Y0027978
X0063684
X0060184Y0020978
X0063684Y0013978
X0021684
X0014684
X0018184Y0006978
X0004184
Y0020978
X0014684Y0027978
X0025184Y0020978
Y0034978
X0046184
X0060184
Y0048978
X00655828Y00554736
X00664972Y0055485
X0042684Y0055978
X0046184Y0048978
X00675132Y00554736
X0077684Y0055978
X0084684
X0091684
X0098684
X0105684
Y0041978
X0102184Y0034978
X0095184
X0091684Y0041978
X0084684
X0077684
X0088184Y0048978
X0112684Y0041978
X0109184Y0034978
T03
X00748284Y00098806
X00747522Y00156464
X00359664Y00217678
X0024511Y00181356
X0025908Y0047752
X00200914Y00500888
X00148844Y00533654
X00289306Y00459486
X0038354Y00478536
X0039243Y004318
T04
X011176Y0011938
Y0014478
Y0017018
Y0019558
X0105283Y00199898
Y00225298
X01052576Y00122428
Y00097028
X00251714Y00555498
X00226314
X00200914
X00128524Y0055626
X00103124
X00077724
X00052324
X00277114Y00555498
X00302514
X00327914
T05
X01119886Y0002921
X00032512Y00031242
X0006477Y00484632
X01115568Y00567436
M30
